<?xml version="1.0" encoding="us-ascii" standalone="no"?><svg xmlns="http://www.w3.org/2000/svg" xmlns:xlink="http://www.w3.org/1999/xlink" contentStyleType="text/css" height="753px" preserveAspectRatio="none" style="width:622px;height:753px;background:#FFFFFF;" version="1.1" viewBox="0 0 622 753" width="622px" zoomAndPan="magnify"><defs/><g><!--cluster Client--><g id="cluster_Client"><path d="M98.5,6.602 L139.5,6.602 A3.75,3.75 0 0 1 142,9.102 L149,31.6699 L227.5,31.6699 A2.5,2.5 0 0 1 230,34.1699 L230,325.102 A2.5,2.5 0 0 1 227.5,327.602 L98.5,327.602 A2.5,2.5 0 0 1 96,325.102 L96,9.102 A2.5,2.5 0 0 1 98.5,6.602 " fill="none" style="stroke:#000000;stroke-width:1.5;"/><line style="stroke:#000000;stroke-width:1.5;" x1="96" x2="149" y1="31.6699" y2="31.6699"/><text fill="#000000" font-family="sans-serif" font-size="14" font-weight="bold" lengthAdjust="spacing" textLength="40" x="100" y="23.5679">Client</text></g><!--cluster Backend--><g id="cluster_Backend"><path d="M157.5,359.602 L217.5,359.602 A3.75,3.75 0 0 1 220,362.102 L227,384.6699 L488.5,384.6699 A2.5,2.5 0 0 1 491,387.1699 L491,476.102 A2.5,2.5 0 0 1 488.5,478.602 L157.5,478.602 A2.5,2.5 0 0 1 155,476.102 L155,362.102 A2.5,2.5 0 0 1 157.5,359.602 " fill="none" style="stroke:#000000;stroke-width:1.5;"/><line style="stroke:#000000;stroke-width:1.5;" x1="155" x2="227" y1="384.6699" y2="384.6699"/><text fill="#000000" font-family="sans-serif" font-size="14" font-weight="bold" lengthAdjust="spacing" textLength="59" x="159" y="376.5679">Backend</text></g><!--cluster Database--><g id="cluster_Database"><path d="M8.5,518.602 L73.5,518.602 A3.75,3.75 0 0 1 76,521.102 L83,543.6699 L291.5,543.6699 A2.5,2.5 0 0 1 294,546.1699 L294,744.102 A2.5,2.5 0 0 1 291.5,746.602 L8.5,746.602 A2.5,2.5 0 0 1 6,744.102 L6,521.102 A2.5,2.5 0 0 1 8.5,518.602 " fill="none" style="stroke:#000000;stroke-width:1.5;"/><line style="stroke:#000000;stroke-width:1.5;" x1="6" x2="83" y1="543.6699" y2="543.6699"/><text fill="#000000" font-family="sans-serif" font-size="14" font-weight="bold" lengthAdjust="spacing" textLength="64" x="10" y="535.5679">Database</text></g><!--cluster External APIs--><g id="cluster_External APIs"><path d="M336.5,518.602 L429.5,518.602 A3.75,3.75 0 0 1 432,521.102 L439,543.6699 L612.5,543.6699 A2.5,2.5 0 0 1 615,546.1699 L615,744.102 A2.5,2.5 0 0 1 612.5,746.602 L336.5,746.602 A2.5,2.5 0 0 1 334,744.102 L334,521.102 A2.5,2.5 0 0 1 336.5,518.602 " fill="none" style="stroke:#000000;stroke-width:1.5;"/><line style="stroke:#000000;stroke-width:1.5;" x1="334" x2="439" y1="543.6699" y2="543.6699"/><text fill="#000000" font-family="sans-serif" font-size="14" font-weight="bold" lengthAdjust="spacing" textLength="92" x="338" y="535.5679">External APIs</text></g><!--entity User--><g id="elem_User"><rect fill="#F1F1F1" height="49.0679" rx="2.5" ry="2.5" style="stroke:#181818;stroke-width:0.5;" width="71" x="127.5" y="44.602"/><rect fill="#F1F1F1" height="10" style="stroke:#181818;stroke-width:0.5;" width="15" x="178.5" y="49.602"/><rect fill="#F1F1F1" height="2" style="stroke:#181818;stroke-width:0.5;" width="4" x="176.5" y="51.602"/><rect fill="#F1F1F1" height="2" style="stroke:#181818;stroke-width:0.5;" width="4" x="176.5" y="55.602"/><text fill="#000000" font-family="sans-serif" font-size="14" lengthAdjust="spacing" textLength="31" x="142.5" y="79.5679">User</text></g><!--entity Browser--><g id="elem_Browser"><rect fill="#F1F1F1" height="49.0679" rx="2.5" ry="2.5" style="stroke:#181818;stroke-width:0.5;" width="95" x="115.5" y="153.602"/><rect fill="#F1F1F1" height="10" style="stroke:#181818;stroke-width:0.5;" width="15" x="190.5" y="158.602"/><rect fill="#F1F1F1" height="2" style="stroke:#181818;stroke-width:0.5;" width="4" x="188.5" y="160.602"/><rect fill="#F1F1F1" height="2" style="stroke:#181818;stroke-width:0.5;" width="4" x="188.5" y="164.602"/><text fill="#000000" font-family="sans-serif" font-size="14" lengthAdjust="spacing" textLength="55" x="130.5" y="188.5679">Browser</text></g><!--entity Frontend--><g id="elem_Frontend"><rect fill="#F1F1F1" height="49.0679" rx="2.5" ry="2.5" style="stroke:#181818;stroke-width:0.5;" width="101" x="112.5" y="262.602"/><rect fill="#F1F1F1" height="10" style="stroke:#181818;stroke-width:0.5;" width="15" x="193.5" y="267.602"/><rect fill="#F1F1F1" height="2" style="stroke:#181818;stroke-width:0.5;" width="4" x="191.5" y="269.602"/><rect fill="#F1F1F1" height="2" style="stroke:#181818;stroke-width:0.5;" width="4" x="191.5" y="273.602"/><text fill="#000000" font-family="sans-serif" font-size="14" lengthAdjust="spacing" textLength="61" x="127.5" y="297.5679">Frontend</text></g><!--entity Core Sever--><g id="elem_Core Sever"><rect fill="#F1F1F1" height="49.0679" rx="2.5" ry="2.5" style="stroke:#181818;stroke-width:0.5;" width="112" x="355" y="405.602"/><rect fill="#F1F1F1" height="10" style="stroke:#181818;stroke-width:0.5;" width="15" x="447" y="410.602"/><rect fill="#F1F1F1" height="2" style="stroke:#181818;stroke-width:0.5;" width="4" x="445" y="412.602"/><rect fill="#F1F1F1" height="2" style="stroke:#181818;stroke-width:0.5;" width="4" x="445" y="416.602"/><text fill="#000000" font-family="sans-serif" font-size="14" lengthAdjust="spacing" textLength="72" x="370" y="440.5679">Core Sever</text></g><!--entity ML Machine--><g id="elem_ML Machine"><rect fill="#F1F1F1" height="49.0679" rx="2.5" ry="2.5" style="stroke:#181818;stroke-width:0.5;" width="122" x="198" y="405.602"/><rect fill="#F1F1F1" height="10" style="stroke:#181818;stroke-width:0.5;" width="15" x="300" y="410.602"/><rect fill="#F1F1F1" height="2" style="stroke:#181818;stroke-width:0.5;" width="4" x="298" y="412.602"/><rect fill="#F1F1F1" height="2" style="stroke:#181818;stroke-width:0.5;" width="4" x="298" y="416.602"/><text fill="#000000" font-family="sans-serif" font-size="14" lengthAdjust="spacing" textLength="82" x="213" y="440.5679">ML Machine</text></g><!--entity Postgres--><g id="elem_Postgres"><rect fill="#F1F1F1" height="49.0679" rx="2.5" ry="2.5" style="stroke:#181818;stroke-width:0.5;" width="98" x="49" y="564.602"/><rect fill="#F1F1F1" height="10" style="stroke:#181818;stroke-width:0.5;" width="15" x="127" y="569.602"/><rect fill="#F1F1F1" height="2" style="stroke:#181818;stroke-width:0.5;" width="4" x="125" y="571.602"/><rect fill="#F1F1F1" height="2" style="stroke:#181818;stroke-width:0.5;" width="4" x="125" y="575.602"/><text fill="#000000" font-family="sans-serif" font-size="14" lengthAdjust="spacing" textLength="58" x="64" y="599.5679">Postgres</text></g><!--entity Mongo--><g id="elem_Mongo"><rect fill="#F1F1F1" height="49.0679" rx="2.5" ry="2.5" style="stroke:#181818;stroke-width:0.5;" width="87" x="182.5" y="564.602"/><rect fill="#F1F1F1" height="10" style="stroke:#181818;stroke-width:0.5;" width="15" x="249.5" y="569.602"/><rect fill="#F1F1F1" height="2" style="stroke:#181818;stroke-width:0.5;" width="4" x="247.5" y="571.602"/><rect fill="#F1F1F1" height="2" style="stroke:#181818;stroke-width:0.5;" width="4" x="247.5" y="575.602"/><text fill="#000000" font-family="sans-serif" font-size="14" lengthAdjust="spacing" textLength="47" x="197.5" y="599.5679">Mongo</text></g><!--entity Redis--><g id="elem_Redis"><rect fill="#F1F1F1" height="49.0679" rx="2.5" ry="2.5" style="stroke:#181818;stroke-width:0.5;" width="77" x="59.5" y="673.602"/><rect fill="#F1F1F1" height="10" style="stroke:#181818;stroke-width:0.5;" width="15" x="116.5" y="678.602"/><rect fill="#F1F1F1" height="2" style="stroke:#181818;stroke-width:0.5;" width="4" x="114.5" y="680.602"/><rect fill="#F1F1F1" height="2" style="stroke:#181818;stroke-width:0.5;" width="4" x="114.5" y="684.602"/><text fill="#000000" font-family="sans-serif" font-size="14" lengthAdjust="spacing" textLength="37" x="74.5" y="708.5679">Redis</text></g><!--entity Minio--><g id="elem_Minio"><rect fill="#F1F1F1" height="49.0679" rx="2.5" ry="2.5" style="stroke:#181818;stroke-width:0.5;" width="78" x="172" y="673.602"/><rect fill="#F1F1F1" height="10" style="stroke:#181818;stroke-width:0.5;" width="15" x="230" y="678.602"/><rect fill="#F1F1F1" height="2" style="stroke:#181818;stroke-width:0.5;" width="4" x="228" y="680.602"/><rect fill="#F1F1F1" height="2" style="stroke:#181818;stroke-width:0.5;" width="4" x="228" y="684.602"/><text fill="#000000" font-family="sans-serif" font-size="14" lengthAdjust="spacing" textLength="38" x="187" y="708.5679">Minio</text></g><!--entity Google--><g id="elem_Google"><rect fill="#F1F1F1" height="49.0679" rx="2.5" ry="2.5" style="stroke:#181818;stroke-width:0.5;" width="87" x="377.5" y="564.602"/><rect fill="#F1F1F1" height="10" style="stroke:#181818;stroke-width:0.5;" width="15" x="444.5" y="569.602"/><rect fill="#F1F1F1" height="2" style="stroke:#181818;stroke-width:0.5;" width="4" x="442.5" y="571.602"/><rect fill="#F1F1F1" height="2" style="stroke:#181818;stroke-width:0.5;" width="4" x="442.5" y="575.602"/><text fill="#000000" font-family="sans-serif" font-size="14" lengthAdjust="spacing" textLength="47" x="392.5" y="599.5679">Google</text></g><!--entity Github--><g id="elem_Github"><rect fill="#F1F1F1" height="49.0679" rx="2.5" ry="2.5" style="stroke:#181818;stroke-width:0.5;" width="86" x="500" y="564.602"/><rect fill="#F1F1F1" height="10" style="stroke:#181818;stroke-width:0.5;" width="15" x="566" y="569.602"/><rect fill="#F1F1F1" height="2" style="stroke:#181818;stroke-width:0.5;" width="4" x="564" y="571.602"/><rect fill="#F1F1F1" height="2" style="stroke:#181818;stroke-width:0.5;" width="4" x="564" y="575.602"/><text fill="#000000" font-family="sans-serif" font-size="14" lengthAdjust="spacing" textLength="46" x="515" y="599.5679">Github</text></g><!--entity LinkedIn--><g id="elem_LinkedIn"><rect fill="#F1F1F1" height="49.0679" rx="2.5" ry="2.5" style="stroke:#181818;stroke-width:0.5;" width="98" x="366" y="673.602"/><rect fill="#F1F1F1" height="10" style="stroke:#181818;stroke-width:0.5;" width="15" x="444" y="678.602"/><rect fill="#F1F1F1" height="2" style="stroke:#181818;stroke-width:0.5;" width="4" x="442" y="680.602"/><rect fill="#F1F1F1" height="2" style="stroke:#181818;stroke-width:0.5;" width="4" x="442" y="684.602"/><text fill="#000000" font-family="sans-serif" font-size="14" lengthAdjust="spacing" textLength="58" x="381" y="708.5679">LinkedIn</text></g><!--entity OpenAI--><g id="elem_OpenAI"><rect fill="#F1F1F1" height="49.0679" rx="2.5" ry="2.5" style="stroke:#181818;stroke-width:0.5;" width="91" x="499.5" y="673.602"/><rect fill="#F1F1F1" height="10" style="stroke:#181818;stroke-width:0.5;" width="15" x="570.5" y="678.602"/><rect fill="#F1F1F1" height="2" style="stroke:#181818;stroke-width:0.5;" width="4" x="568.5" y="680.602"/><rect fill="#F1F1F1" height="2" style="stroke:#181818;stroke-width:0.5;" width="4" x="568.5" y="684.602"/><text fill="#000000" font-family="sans-serif" font-size="14" lengthAdjust="spacing" textLength="51" x="514.5" y="708.5679">OpenAI</text></g><!--link User to Browser--><g id="link_User_Browser"><path d="M163,93.852 C163,109.502 163,130.142 163,146.952 " fill="none" id="User-to-Browser" style="stroke:#181818;stroke-width:1.0;"/><polygon fill="#181818" points="163,151.912,167,142.912,163,146.912,159,142.912,163,151.912" style="stroke:#181818;stroke-width:1.0;"/></g><!--link Browser to Frontend--><g id="link_Browser_Frontend"><path d="M163,202.852 C163,218.502 163,239.142 163,255.952 " fill="none" id="Browser-to-Frontend" style="stroke:#181818;stroke-width:1.0;"/><polygon fill="#181818" points="163,260.912,167,251.912,163,255.912,159,251.912,163,260.912" style="stroke:#181818;stroke-width:1.0;"/></g><!--link Frontend to Backend--><g id="link_Frontend_Backend"><path d="M163,312.022 C163,321.922 163,334.0401 163,346.685 C163,349.8462 163,353.0403 163,356.2409 C163,357.0411 163,357.8416 163,358.6422 C163,358.8423 163,359.0425 163,359.2426 " fill="none" id="Frontend-to-Backend" style="stroke:#181818;stroke-width:1.0;"/><polygon fill="#181818" points="163,359.2426,167,350.2426,163,354.2426,159,350.2426,163,359.2426" style="stroke:#181818;stroke-width:1.0;"/></g><!--link Backend to Database--><g id="link_Backend_Database"><path d="M154.9506,433.0299 C154.8425,433.0579 154.7335,433.0862 154.6236,433.1149 C154.1837,433.2294 153.7286,433.3491 153.2588,433.4739 C151.3797,433.9732 149.2652,434.555 146.9484,435.2229 C137.6812,437.8945 125.1762,441.9432 111.54,447.597 C84.2675,458.9045 52.47,476.632 33,502.602 C30.1725,506.3732 27.7513,510.485 25.6793,514.7994 C25.1613,515.878 24.6652,516.9692 24.19,518.071 C24.1306,518.2088 24.0715,518.3466 24.0128,518.4847 " fill="none" id="Backend-to-Database" style="stroke:#181818;stroke-width:1.0;"/><polygon fill="#181818" points="24.0128,518.4847,31.2176,511.7697,25.9707,513.884,23.8564,508.6371,24.0128,518.4847" style="stroke:#181818;stroke-width:1.0;"/></g><!--link Backend to External APIs--><g id="link_Backend_External APIs"><path d="M170.1721,478.7445 C170.3586,479.1508 170.5497,479.5548 170.7454,479.9562 C171.1368,480.7589 171.5469,481.5512 171.9765,482.3312 C172.8357,483.891 173.7729,485.4012 174.795,486.846 C176.8391,489.7356 179.2225,492.3632 182,494.602 C200.05,509.152 266.05,490.812 286,502.602 C305.245,513.977 319.1125,534.867 328.2338,553.1495 C329.3739,555.4348 330.4399,557.6794 331.433,559.8595 C331.9295,560.9496 332.4078,562.0236 332.868,563.0785 C333.0981,563.6059 333.3237,564.1286 333.5448,564.6462 C333.6554,564.9049 333.7648,565.1624 333.8731,565.4186 " fill="none" id="Backend-to-External APIs" style="stroke:#181818;stroke-width:1.0;"/><polygon fill="#181818" points="333.8731,565.4186,334.0527,555.5714,331.9261,560.8133,326.6842,558.6866,333.8731,565.4186" style="stroke:#181818;stroke-width:1.0;"/></g><!--SRC=[RL71Ri8m3BtdAwnTkC2uxp09s8QGG4ERTfeucDOh4QrT9M6RDEtVbr17WyAXYXs_z_poEjY5qFgxyRYjaSEXgMyBQSRnQuM9mwYqM3biZ1b0uGW3mOSJ3iGbj5ZiiIAZ9zpCQXifD_1Z0DxVFBbDAgPEldBzfDoD-JrHt4Q1guBJRg2ACt44h_IfMgibhB3OMQPpjH83Rj7JfTo3JfBU0B2C6yM7of4VGYDSoH0SbJPs6Dqqbgt4HN7LMc6RhbqbhDOlYP3l4oER4MOgmcLQAHSOZUv1Sp5w7kzoFjS4agT-KXdV2NR34suVheWZEeTXD0hw3kGOQy3MPeB_p-unZoVhXUz-I7pnNAIgIPy_js5ts6gpjBodSi7QFhV4aqKlcwih8KZsVUQtvy3y0G00]--></g></svg>