<?xml version="1.0" encoding="us-ascii" standalone="no"?><svg xmlns="http://www.w3.org/2000/svg" xmlns:xlink="http://www.w3.org/1999/xlink" contentStyleType="text/css" height="843px" preserveAspectRatio="none" style="width:690px;height:843px;background:#FFFFFF;" version="1.1" viewBox="0 0 690 843" width="690px" zoomAndPan="magnify"><defs/><g><!--class user--><g id="elem_user"><rect codeLine="2" fill="#F1F1F1" height="200.5433" id="user" rx="2.5" ry="2.5" style="stroke:#181818;stroke-width:0.5;" width="85" x="176" y="7"/><ellipse cx="201.35" cy="23" fill="#ADD1B2" rx="11" ry="11" style="stroke:#181818;stroke-width:1.0;"/><path d="M197.7094,29.5 L197.7094,17.3594 L205.3656,17.3594 L205.3656,19.4844 L200.0844,19.4844 L200.0844,22.1406 L205.1,22.1406 L205.1,24.2656 L200.0844,24.2656 L200.0844,27.375 L205.3656,27.375 L205.3656,29.5 L197.7094,29.5 Z " fill="#000000"/><text fill="#000000" font-family="sans-serif" font-size="14" lengthAdjust="spacing" textLength="30" x="217.65" y="28.432">user</text><line style="stroke:#181818;stroke-width:0.5;" x1="177" x2="260" y1="39" y2="39"/><text fill="#000000" font-family="sans-serif" font-size="14" lengthAdjust="spacing" textLength="13" x="182" y="57.9659">id</text><text fill="#000000" font-family="sans-serif" font-size="14" lengthAdjust="spacing" textLength="68" x="182" y="77.0339">username</text><text fill="#000000" font-family="sans-serif" font-size="14" lengthAdjust="spacing" textLength="65" x="182" y="96.1018">password</text><text fill="#000000" font-family="sans-serif" font-size="14" lengthAdjust="spacing" textLength="37" x="182" y="115.1697">email</text><text fill="#000000" font-family="sans-serif" font-size="14" lengthAdjust="spacing" textLength="42" x="182" y="134.2376">image</text><text fill="#000000" font-family="sans-serif" font-size="14" lengthAdjust="spacing" textLength="64" x="182" y="153.3055">github_id</text><text fill="#000000" font-family="sans-serif" font-size="14" lengthAdjust="spacing" textLength="73" x="182" y="172.3734">linkedin_id</text><text fill="#000000" font-family="sans-serif" font-size="14" lengthAdjust="spacing" textLength="60" x="182" y="191.4414">dob date</text><line style="stroke:#181818;stroke-width:0.5;" x1="177" x2="260" y1="199.5433" y2="199.5433"/></g><!--class cv_template--><g id="elem_cv_template"><rect codeLine="14" fill="#F1F1F1" height="162.4075" id="cv_template" rx="2.5" ry="2.5" style="stroke:#181818;stroke-width:0.5;" width="112" x="129.5" y="674"/><ellipse cx="144.5" cy="690" fill="#ADD1B2" rx="11" ry="11" style="stroke:#181818;stroke-width:1.0;"/><path d="M140.8594,696.5 L140.8594,684.3594 L148.5156,684.3594 L148.5156,686.4844 L143.2344,686.4844 L143.2344,689.1406 L148.25,689.1406 L148.25,691.2656 L143.2344,691.2656 L143.2344,694.375 L148.5156,694.375 L148.5156,696.5 L140.8594,696.5 Z " fill="#000000"/><text fill="#000000" font-family="sans-serif" font-size="14" lengthAdjust="spacing" textLength="80" x="158.5" y="695.432">cv_template</text><line style="stroke:#181818;stroke-width:0.5;" x1="130.5" x2="240.5" y1="706" y2="706"/><text fill="#000000" font-family="sans-serif" font-size="14" lengthAdjust="spacing" textLength="13" x="135.5" y="724.9659">id</text><text fill="#000000" font-family="sans-serif" font-size="14" lengthAdjust="spacing" textLength="38" x="135.5" y="744.0339">name</text><text fill="#000000" font-family="sans-serif" font-size="14" lengthAdjust="spacing" textLength="76" x="135.5" y="763.1018">description</text><text fill="#000000" font-family="sans-serif" font-size="14" lengthAdjust="spacing" textLength="37" x="135.5" y="782.1697">views</text><text fill="#000000" font-family="sans-serif" font-size="14" lengthAdjust="spacing" textLength="73" x="135.5" y="801.2376">downloads</text><text fill="#000000" font-family="sans-serif" font-size="14" lengthAdjust="spacing" textLength="68" x="135.5" y="820.3055">published</text><line style="stroke:#181818;stroke-width:0.5;" x1="130.5" x2="240.5" y1="828.4075" y2="828.4075"/></g><!--class profile--><g id="elem_profile"><rect codeLine="23" fill="#F1F1F1" height="105.2038" id="profile" rx="2.5" ry="2.5" style="stroke:#181818;stroke-width:0.5;" width="76" x="135.5" y="268"/><ellipse cx="150.5" cy="284" fill="#ADD1B2" rx="11" ry="11" style="stroke:#181818;stroke-width:1.0;"/><path d="M146.8594,290.5 L146.8594,278.3594 L154.5156,278.3594 L154.5156,280.4844 L149.2344,280.4844 L149.2344,283.1406 L154.25,283.1406 L154.25,285.2656 L149.2344,285.2656 L149.2344,288.375 L154.5156,288.375 L154.5156,290.5 L146.8594,290.5 Z " fill="#000000"/><text fill="#000000" font-family="sans-serif" font-size="14" lengthAdjust="spacing" textLength="44" x="164.5" y="289.432">profile</text><line style="stroke:#181818;stroke-width:0.5;" x1="136.5" x2="210.5" y1="300" y2="300"/><text fill="#000000" font-family="sans-serif" font-size="14" lengthAdjust="spacing" textLength="49" x="141.5" y="318.9659">user_id</text><text fill="#000000" font-family="sans-serif" font-size="14" lengthAdjust="spacing" textLength="55" x="141.5" y="338.0339">sections</text><text fill="#000000" font-family="sans-serif" font-size="14" lengthAdjust="spacing" textLength="48" x="141.5" y="357.1018">privacy</text><line style="stroke:#181818;stroke-width:0.5;" x1="136.5" x2="210.5" y1="365.2038" y2="365.2038"/></g><!--class sections--><g id="elem_sections"><rect codeLine="29" fill="#F1F1F1" height="124.2717" id="sections" rx="2.5" ry="2.5" style="stroke:#181818;stroke-width:0.5;" width="87" x="7" y="693"/><ellipse cx="22" cy="709" fill="#ADD1B2" rx="11" ry="11" style="stroke:#181818;stroke-width:1.0;"/><path d="M18.3594,715.5 L18.3594,703.3594 L26.0156,703.3594 L26.0156,705.4844 L20.7344,705.4844 L20.7344,708.1406 L25.75,708.1406 L25.75,710.2656 L20.7344,710.2656 L20.7344,713.375 L26.0156,713.375 L26.0156,715.5 L18.3594,715.5 Z " fill="#000000"/><text fill="#000000" font-family="sans-serif" font-size="14" lengthAdjust="spacing" textLength="55" x="36" y="714.432">sections</text><line style="stroke:#181818;stroke-width:0.5;" x1="8" x2="93" y1="725" y2="725"/><text fill="#000000" font-family="sans-serif" font-size="14" lengthAdjust="spacing" textLength="13" x="13" y="743.9659">id</text><text fill="#000000" font-family="sans-serif" font-size="14" lengthAdjust="spacing" textLength="38" x="13" y="763.0339">name</text><text fill="#000000" font-family="sans-serif" font-size="14" lengthAdjust="spacing" textLength="65" x="13" y="782.1018">data_type</text><text fill="#000000" font-family="sans-serif" font-size="14" lengthAdjust="spacing" textLength="30" x="13" y="801.1697">data</text><line style="stroke:#181818;stroke-width:0.5;" x1="8" x2="93" y1="809.2717" y2="809.2717"/></g><!--class cv--><g id="elem_cv"><rect codeLine="37" fill="#F1F1F1" height="181.4754" id="cv" rx="2.5" ry="2.5" style="stroke:#181818;stroke-width:0.5;" width="148" x="190.5" y="433"/><ellipse cx="253.25" cy="449" fill="#ADD1B2" rx="11" ry="11" style="stroke:#181818;stroke-width:1.0;"/><path d="M249.6094,455.5 L249.6094,443.3594 L257.2656,443.3594 L257.2656,445.4844 L251.9844,445.4844 L251.9844,448.1406 L257,448.1406 L257,450.2656 L251.9844,450.2656 L251.9844,453.375 L257.2656,453.375 L257.2656,455.5 L249.6094,455.5 Z " fill="#000000"/><text fill="#000000" font-family="sans-serif" font-size="14" lengthAdjust="spacing" textLength="14" x="273.75" y="454.432">cv</text><line style="stroke:#181818;stroke-width:0.5;" x1="191.5" x2="337.5" y1="465" y2="465"/><text fill="#000000" font-family="sans-serif" font-size="14" lengthAdjust="spacing" textLength="13" x="196.5" y="483.9659">id</text><text fill="#000000" font-family="sans-serif" font-size="14" lengthAdjust="spacing" textLength="38" x="196.5" y="503.0339">name</text><text fill="#000000" font-family="sans-serif" font-size="14" lengthAdjust="spacing" textLength="76" x="196.5" y="522.1018">description</text><text fill="#000000" font-family="sans-serif" font-size="14" lengthAdjust="spacing" textLength="37" x="196.5" y="541.1697">views</text><text fill="#000000" font-family="sans-serif" font-size="14" lengthAdjust="spacing" textLength="126" x="196.5" y="560.2376">section_references</text><text fill="#000000" font-family="sans-serif" font-size="14" lengthAdjust="spacing" textLength="77" x="196.5" y="579.3055">shared_link</text><text fill="#000000" font-family="sans-serif" font-size="14" lengthAdjust="spacing" textLength="136" x="196.5" y="598.3734">language_variant_id</text><line style="stroke:#181818;stroke-width:0.5;" x1="191.5" x2="337.5" y1="606.4754" y2="606.4754"/></g><!--class role_model_cvs--><g id="elem_role_model_cvs"><rect codeLine="48" fill="#F1F1F1" height="67.0679" id="role_model_cvs" rx="2.5" ry="2.5" style="stroke:#181818;stroke-width:0.5;" width="133" x="277" y="721.5"/><ellipse cx="292" cy="737.5" fill="#ADD1B2" rx="11" ry="11" style="stroke:#181818;stroke-width:1.0;"/><path d="M288.3594,744 L288.3594,731.8594 L296.0156,731.8594 L296.0156,733.9844 L290.7344,733.9844 L290.7344,736.6406 L295.75,736.6406 L295.75,738.7656 L290.7344,738.7656 L290.7344,741.875 L296.0156,741.875 L296.0156,744 L288.3594,744 Z " fill="#000000"/><text fill="#000000" font-family="sans-serif" font-size="14" lengthAdjust="spacing" textLength="101" x="306" y="742.932">role_model_cvs</text><line style="stroke:#181818;stroke-width:0.5;" x1="278" x2="409" y1="753.5" y2="753.5"/><text fill="#000000" font-family="sans-serif" font-size="14" lengthAdjust="spacing" textLength="33" x="283" y="772.4659">cv_id</text><line style="stroke:#181818;stroke-width:0.5;" x1="278" x2="409" y1="780.5679" y2="780.5679"/></g><!--class feedback--><g id="elem_feedback"><rect codeLine="53" fill="#F1F1F1" height="162.4075" id="feedback" rx="2.5" ry="2.5" style="stroke:#181818;stroke-width:0.5;" width="93" x="445" y="674"/><ellipse cx="460" cy="690" fill="#ADD1B2" rx="11" ry="11" style="stroke:#181818;stroke-width:1.0;"/><path d="M456.3594,696.5 L456.3594,684.3594 L464.0156,684.3594 L464.0156,686.4844 L458.7344,686.4844 L458.7344,689.1406 L463.75,689.1406 L463.75,691.2656 L458.7344,691.2656 L458.7344,694.375 L464.0156,694.375 L464.0156,696.5 L456.3594,696.5 Z " fill="#000000"/><text fill="#000000" font-family="sans-serif" font-size="14" lengthAdjust="spacing" textLength="61" x="474" y="695.432">feedback</text><line style="stroke:#181818;stroke-width:0.5;" x1="446" x2="537" y1="706" y2="706"/><text fill="#000000" font-family="sans-serif" font-size="14" lengthAdjust="spacing" textLength="13" x="451" y="724.9659">id</text><text fill="#000000" font-family="sans-serif" font-size="14" lengthAdjust="spacing" textLength="49" x="451" y="744.0339">user_id</text><text fill="#000000" font-family="sans-serif" font-size="14" lengthAdjust="spacing" textLength="33" x="451" y="763.1018">cv_id</text><text fill="#000000" font-family="sans-serif" font-size="14" lengthAdjust="spacing" textLength="38" x="451" y="782.1697">xpath</text><text fill="#000000" font-family="sans-serif" font-size="14" lengthAdjust="spacing" textLength="31" x="451" y="801.2376">start</text><text fill="#000000" font-family="sans-serif" font-size="14" lengthAdjust="spacing" textLength="26" x="451" y="820.3055">end</text><line style="stroke:#181818;stroke-width:0.5;" x1="446" x2="537" y1="828.4075" y2="828.4075"/></g><!--class cover_letter--><g id="elem_cover_letter"><rect codeLine="63" fill="#F1F1F1" height="124.2717" id="cover_letter" rx="2.5" ry="2.5" style="stroke:#181818;stroke-width:0.5;" width="110" x="573.5" y="693"/><ellipse cx="588.5" cy="709" fill="#ADD1B2" rx="11" ry="11" style="stroke:#181818;stroke-width:1.0;"/><path d="M584.8594,715.5 L584.8594,703.3594 L592.5156,703.3594 L592.5156,705.4844 L587.2344,705.4844 L587.2344,708.1406 L592.25,708.1406 L592.25,710.2656 L587.2344,710.2656 L587.2344,713.375 L592.5156,713.375 L592.5156,715.5 L584.8594,715.5 Z " fill="#000000"/><text fill="#000000" font-family="sans-serif" font-size="14" lengthAdjust="spacing" textLength="78" x="602.5" y="714.432">cover_letter</text><line style="stroke:#181818;stroke-width:0.5;" x1="574.5" x2="682.5" y1="725" y2="725"/><text fill="#000000" font-family="sans-serif" font-size="14" lengthAdjust="spacing" textLength="13" x="579.5" y="743.9659">id</text><text fill="#000000" font-family="sans-serif" font-size="14" lengthAdjust="spacing" textLength="49" x="579.5" y="763.0339">user_id</text><text fill="#000000" font-family="sans-serif" font-size="14" lengthAdjust="spacing" textLength="33" x="579.5" y="782.1018">cv_id</text><text fill="#000000" font-family="sans-serif" font-size="14" lengthAdjust="spacing" textLength="78" x="579.5" y="801.1697">cover_letter</text><line style="stroke:#181818;stroke-width:0.5;" x1="574.5" x2="682.5" y1="809.2717" y2="809.2717"/></g><!--link user to profile--><g id="link_user_profile"><path codeLine="72" d="M197.19,208.44 C192.82,228.89 188.4,249.62 184.58,267.55 " fill="none" id="user-profile" style="stroke:#181818;stroke-width:1.0;"/><text fill="#000000" font-family="sans-serif" font-size="13" lengthAdjust="spacing" textLength="7" x="188.6006" y="229.3853">1</text><text fill="#000000" font-family="sans-serif" font-size="13" lengthAdjust="spacing" textLength="7" x="178.5986" y="256.2234">1</text></g><!--link profile to sections--><g id="link_profile_sections"><path codeLine="73" d="M158.79,373.24 C135.99,453.4 92.23,607.25 67.9,692.81 " fill="none" id="profile-sections" style="stroke:#181818;stroke-width:1.0;"/><text fill="#000000" font-family="sans-serif" font-size="13" lengthAdjust="spacing" textLength="7" x="149.4568" y="395.0156">1</text><text fill="#000000" font-family="sans-serif" font-size="13" lengthAdjust="spacing" textLength="8" x="61.5331" y="681.1181">n</text></g><!--link user to cv--><g id="link_user_cv"><path codeLine="74" d="M229.61,208.45 C237.2,276.77 247.17,366.55 254.51,432.61 " fill="none" id="user-cv" style="stroke:#181818;stroke-width:1.0;"/><text fill="#000000" font-family="sans-serif" font-size="13" lengthAdjust="spacing" textLength="7" x="223.0975" y="229.3959">1</text><text fill="#000000" font-family="sans-serif" font-size="13" lengthAdjust="spacing" textLength="8" x="245.3515" y="421.2858">n</text></g><!--link cv to role_model_cvs--><g id="link_cv_role_model_cvs"><path codeLine="75" d="M295.38,614.22 C308.32,651.81 322.56,693.16 332.16,721.07 " fill="none" id="cv-role_model_cvs" style="stroke:#181818;stroke-width:1.0;"/><text fill="#000000" font-family="sans-serif" font-size="13" lengthAdjust="spacing" textLength="7" x="290.6474" y="636.3432">1</text><text fill="#000000" font-family="sans-serif" font-size="13" lengthAdjust="spacing" textLength="8" x="321.1399" y="709.6764">n</text></g><!--link cv to feedback--><g id="link_cv_feedback"><path codeLine="76" d="M338.99,588.44 C367.6,614.1 399.97,644.54 427.5,674 C433.21,680.11 438.98,686.67 444.59,693.31 " fill="none" id="cv-feedback" style="stroke:#181818;stroke-width:1.0;"/><text fill="#000000" font-family="sans-serif" font-size="13" lengthAdjust="spacing" textLength="7" x="346.4234" y="590.7274">1</text><text fill="#000000" font-family="sans-serif" font-size="13" lengthAdjust="spacing" textLength="8" x="429.1126" y="679.9198">n</text></g><!--link cv to cover_letter--><g id="link_cv_cover_letter"><path codeLine="77" d="M338.97,553.94 C400.43,580.24 488.16,622.51 555.5,674 C562.82,679.6 570.01,685.98 576.85,692.65 " fill="none" id="cv-cover_letter" style="stroke:#181818;stroke-width:1.0;"/><text fill="#000000" font-family="sans-serif" font-size="13" lengthAdjust="spacing" textLength="7" x="346.4015" y="552.9392">1</text><text fill="#000000" font-family="sans-serif" font-size="13" lengthAdjust="spacing" textLength="7" x="563.4733" y="681.3801">1</text></g><!--link cv to cv_template--><g id="link_cv_cv_template"><path codeLine="78" d="M233.62,614.22 C226.87,633.83 219.76,654.47 213.15,673.68 " fill="none" id="cv-cv_template" style="stroke:#181818;stroke-width:1.0;"/><text fill="#000000" font-family="sans-serif" font-size="13" lengthAdjust="spacing" textLength="7" x="223.7729" y="636.3432">1</text><text fill="#000000" font-family="sans-serif" font-size="13" lengthAdjust="spacing" textLength="7" x="208.3763" y="662.3105">1</text></g><!--link profile to cv--><g id="link_profile_cv"><path codeLine="80" d="M196.93,373.26 C205.15,391.41 214.63,412.35 223.84,432.7 " fill="none" id="profile-cv" style="stroke:#181818;stroke-width:1.0;"/><text fill="#000000" font-family="sans-serif" font-size="13" lengthAdjust="spacing" textLength="7" x="192.4835" y="395.0381">1</text><text fill="#000000" font-family="sans-serif" font-size="13" lengthAdjust="spacing" textLength="8" x="212.002" y="421.0733">n</text></g><!--link cv to sections--><g id="link_cv_sections"><path codeLine="82" d="M190.32,592.77 C164.55,617.57 135.98,646.32 111.5,674 C105.71,680.54 99.86,687.58 94.19,694.67 " fill="none" id="cv-sections" style="stroke:#181818;stroke-width:1.0;"/><text fill="#000000" font-family="sans-serif" font-size="13" lengthAdjust="spacing" textLength="7" x="175.3093" y="595.9458">1</text><text fill="#000000" font-family="sans-serif" font-size="13" lengthAdjust="spacing" textLength="8" x="101.4925" y="681.0607">n</text></g><!--SRC=[ZLFBRiGW3BpdAwozzB8zz8kG0zuDAW44RBQhglzUymX9kgtKIu8DOyOpvWLa84m4Q85iqka1jqW1xZfDeDMvH1PdEeF76EykS8vcrERC40N16HhsmCy16CUV5SZB5SdB0ir7PhpchIlVSnj5GHXjtqbfMoFbHb3CRFWQXfTdbdA1HBCtEPjvLewAeWpQ9-ti6HPDzyWvTxV6eUAblur6nudKqAk8NgKpRwntjJWgnGgjLYttrSinnrRH1tVHfbQh8jHs02B9N2kMm0Uze7piWEjsGpPGum9P2XJfuRVeRs6wUN-9ihN_pwuREH7eGe6if9ASC90IsRRi7jhhZKqL2mQDDkMs2yE48-jnSG7e0rbhucixWpm_OdQAZE1iwvrTUGPVYDI8ydr5hl5HhxtWjKnUVNXCKpKXOKXbHVRf2kaMdc13AL7ODCf9KPF_kMj_Fb-GFNBMie2G9gekQOhLf40yUjdrIViub0TqUZl1wslvjLaQrfbQj-nf6wO3XZVaCh2hkyHHuH-RNTHTcd-77dviRI-6EtEM-iGd1pFQHt7t5yPCh9xFBxSTxLqSMVNqDm00]--></g></svg>