<?xml version="1.0" encoding="us-ascii" standalone="no"?><svg xmlns="http://www.w3.org/2000/svg" xmlns:xlink="http://www.w3.org/1999/xlink" contentStyleType="text/css" height="843px" preserveAspectRatio="none" style="width:568px;height:843px;background:#FFFFFF;" version="1.1" viewBox="0 0 568 843" width="568px" zoomAndPan="magnify"><defs/><g><!--class user--><g id="elem_user"><rect codeLine="2" fill="#F1F1F1" height="200.5433" id="user" rx="2.5" ry="2.5" style="stroke:#181818;stroke-width:0.5;" width="85" x="206.5" y="7"/><ellipse cx="231.85" cy="23" fill="#ADD1B2" rx="11" ry="11" style="stroke:#181818;stroke-width:1.0;"/><path d="M228.2094,29.5 L228.2094,17.3594 L235.8656,17.3594 L235.8656,19.4844 L230.5844,19.4844 L230.5844,22.1406 L235.6,22.1406 L235.6,24.2656 L230.5844,24.2656 L230.5844,27.375 L235.8656,27.375 L235.8656,29.5 L228.2094,29.5 Z " fill="#000000"/><text fill="#000000" font-family="sans-serif" font-size="14" lengthAdjust="spacing" textLength="30" x="248.15" y="28.432">user</text><line style="stroke:#181818;stroke-width:0.5;" x1="207.5" x2="290.5" y1="39" y2="39"/><text fill="#000000" font-family="sans-serif" font-size="14" lengthAdjust="spacing" textLength="13" x="212.5" y="57.9659">id</text><text fill="#000000" font-family="sans-serif" font-size="14" lengthAdjust="spacing" textLength="68" x="212.5" y="77.0339">username</text><text fill="#000000" font-family="sans-serif" font-size="14" lengthAdjust="spacing" textLength="65" x="212.5" y="96.1018">password</text><text fill="#000000" font-family="sans-serif" font-size="14" lengthAdjust="spacing" textLength="37" x="212.5" y="115.1697">email</text><text fill="#000000" font-family="sans-serif" font-size="14" lengthAdjust="spacing" textLength="42" x="212.5" y="134.2376">image</text><text fill="#000000" font-family="sans-serif" font-size="14" lengthAdjust="spacing" textLength="64" x="212.5" y="153.3055">github_id</text><text fill="#000000" font-family="sans-serif" font-size="14" lengthAdjust="spacing" textLength="73" x="212.5" y="172.3734">linkedin_id</text><text fill="#000000" font-family="sans-serif" font-size="14" lengthAdjust="spacing" textLength="60" x="212.5" y="191.4414">dob date</text><line style="stroke:#181818;stroke-width:0.5;" x1="207.5" x2="290.5" y1="199.5433" y2="199.5433"/></g><!--class cv_template--><g id="elem_cv_template"><rect codeLine="14" fill="#F1F1F1" height="162.4075" id="cv_template" rx="2.5" ry="2.5" style="stroke:#181818;stroke-width:0.5;" width="112" x="7" y="674"/><ellipse cx="22" cy="690" fill="#ADD1B2" rx="11" ry="11" style="stroke:#181818;stroke-width:1.0;"/><path d="M18.3594,696.5 L18.3594,684.3594 L26.0156,684.3594 L26.0156,686.4844 L20.7344,686.4844 L20.7344,689.1406 L25.75,689.1406 L25.75,691.2656 L20.7344,691.2656 L20.7344,694.375 L26.0156,694.375 L26.0156,696.5 L18.3594,696.5 Z " fill="#000000"/><text fill="#000000" font-family="sans-serif" font-size="14" lengthAdjust="spacing" textLength="80" x="36" y="695.432">cv_template</text><line style="stroke:#181818;stroke-width:0.5;" x1="8" x2="118" y1="706" y2="706"/><text fill="#000000" font-family="sans-serif" font-size="14" lengthAdjust="spacing" textLength="13" x="13" y="724.9659">id</text><text fill="#000000" font-family="sans-serif" font-size="14" lengthAdjust="spacing" textLength="38" x="13" y="744.0339">name</text><text fill="#000000" font-family="sans-serif" font-size="14" lengthAdjust="spacing" textLength="76" x="13" y="763.1018">description</text><text fill="#000000" font-family="sans-serif" font-size="14" lengthAdjust="spacing" textLength="37" x="13" y="782.1697">views</text><text fill="#000000" font-family="sans-serif" font-size="14" lengthAdjust="spacing" textLength="73" x="13" y="801.2376">downloads</text><text fill="#000000" font-family="sans-serif" font-size="14" lengthAdjust="spacing" textLength="68" x="13" y="820.3055">published</text><line style="stroke:#181818;stroke-width:0.5;" x1="8" x2="118" y1="828.4075" y2="828.4075"/></g><!--class profile--><g id="elem_profile"><rect codeLine="23" fill="#F1F1F1" height="105.2038" id="profile" rx="2.5" ry="2.5" style="stroke:#181818;stroke-width:0.5;" width="76" x="166" y="268"/><ellipse cx="181" cy="284" fill="#ADD1B2" rx="11" ry="11" style="stroke:#181818;stroke-width:1.0;"/><path d="M177.3594,290.5 L177.3594,278.3594 L185.0156,278.3594 L185.0156,280.4844 L179.7344,280.4844 L179.7344,283.1406 L184.75,283.1406 L184.75,285.2656 L179.7344,285.2656 L179.7344,288.375 L185.0156,288.375 L185.0156,290.5 L177.3594,290.5 Z " fill="#000000"/><text fill="#000000" font-family="sans-serif" font-size="14" lengthAdjust="spacing" textLength="44" x="195" y="289.432">profile</text><line style="stroke:#181818;stroke-width:0.5;" x1="167" x2="241" y1="300" y2="300"/><text fill="#000000" font-family="sans-serif" font-size="14" lengthAdjust="spacing" textLength="49" x="172" y="318.9659">user_id</text><text fill="#000000" font-family="sans-serif" font-size="14" lengthAdjust="spacing" textLength="55" x="172" y="338.0339">sections</text><text fill="#000000" font-family="sans-serif" font-size="14" lengthAdjust="spacing" textLength="48" x="172" y="357.1018">privacy</text><line style="stroke:#181818;stroke-width:0.5;" x1="167" x2="241" y1="365.2038" y2="365.2038"/></g><!--class sections--><g id="elem_sections"><rect codeLine="29" fill="#F1F1F1" height="124.2717" id="sections" rx="2.5" ry="2.5" style="stroke:#181818;stroke-width:0.5;" width="87" x="98.5" y="461.5"/><ellipse cx="113.5" cy="477.5" fill="#ADD1B2" rx="11" ry="11" style="stroke:#181818;stroke-width:1.0;"/><path d="M109.8594,484 L109.8594,471.8594 L117.5156,471.8594 L117.5156,473.9844 L112.2344,473.9844 L112.2344,476.6406 L117.25,476.6406 L117.25,478.7656 L112.2344,478.7656 L112.2344,481.875 L117.5156,481.875 L117.5156,484 L109.8594,484 Z " fill="#000000"/><text fill="#000000" font-family="sans-serif" font-size="14" lengthAdjust="spacing" textLength="55" x="127.5" y="482.932">sections</text><line style="stroke:#181818;stroke-width:0.5;" x1="99.5" x2="184.5" y1="493.5" y2="493.5"/><text fill="#000000" font-family="sans-serif" font-size="14" lengthAdjust="spacing" textLength="13" x="104.5" y="512.4659">id</text><text fill="#000000" font-family="sans-serif" font-size="14" lengthAdjust="spacing" textLength="38" x="104.5" y="531.5339">name</text><text fill="#000000" font-family="sans-serif" font-size="14" lengthAdjust="spacing" textLength="65" x="104.5" y="550.6018">data_type</text><text fill="#000000" font-family="sans-serif" font-size="14" lengthAdjust="spacing" textLength="30" x="104.5" y="569.6697">data</text><line style="stroke:#181818;stroke-width:0.5;" x1="99.5" x2="184.5" y1="577.7717" y2="577.7717"/></g><!--class cv--><g id="elem_cv"><rect codeLine="37" fill="#F1F1F1" height="181.4754" id="cv" rx="2.5" ry="2.5" style="stroke:#181818;stroke-width:0.5;" width="148" x="221" y="433"/><ellipse cx="283.75" cy="449" fill="#ADD1B2" rx="11" ry="11" style="stroke:#181818;stroke-width:1.0;"/><path d="M280.1094,455.5 L280.1094,443.3594 L287.7656,443.3594 L287.7656,445.4844 L282.4844,445.4844 L282.4844,448.1406 L287.5,448.1406 L287.5,450.2656 L282.4844,450.2656 L282.4844,453.375 L287.7656,453.375 L287.7656,455.5 L280.1094,455.5 Z " fill="#000000"/><text fill="#000000" font-family="sans-serif" font-size="14" lengthAdjust="spacing" textLength="14" x="304.25" y="454.432">cv</text><line style="stroke:#181818;stroke-width:0.5;" x1="222" x2="368" y1="465" y2="465"/><text fill="#000000" font-family="sans-serif" font-size="14" lengthAdjust="spacing" textLength="13" x="227" y="483.9659">id</text><text fill="#000000" font-family="sans-serif" font-size="14" lengthAdjust="spacing" textLength="38" x="227" y="503.0339">name</text><text fill="#000000" font-family="sans-serif" font-size="14" lengthAdjust="spacing" textLength="76" x="227" y="522.1018">description</text><text fill="#000000" font-family="sans-serif" font-size="14" lengthAdjust="spacing" textLength="37" x="227" y="541.1697">views</text><text fill="#000000" font-family="sans-serif" font-size="14" lengthAdjust="spacing" textLength="126" x="227" y="560.2376">section_references</text><text fill="#000000" font-family="sans-serif" font-size="14" lengthAdjust="spacing" textLength="77" x="227" y="579.3055">shared_link</text><text fill="#000000" font-family="sans-serif" font-size="14" lengthAdjust="spacing" textLength="136" x="227" y="598.3734">language_variant_id</text><line style="stroke:#181818;stroke-width:0.5;" x1="222" x2="368" y1="606.4754" y2="606.4754"/></g><!--class role_model_cvs--><g id="elem_role_model_cvs"><rect codeLine="48" fill="#F1F1F1" height="67.0679" id="role_model_cvs" rx="2.5" ry="2.5" style="stroke:#181818;stroke-width:0.5;" width="133" x="154.5" y="721.5"/><ellipse cx="169.5" cy="737.5" fill="#ADD1B2" rx="11" ry="11" style="stroke:#181818;stroke-width:1.0;"/><path d="M165.8594,744 L165.8594,731.8594 L173.5156,731.8594 L173.5156,733.9844 L168.2344,733.9844 L168.2344,736.6406 L173.25,736.6406 L173.25,738.7656 L168.2344,738.7656 L168.2344,741.875 L173.5156,741.875 L173.5156,744 L165.8594,744 Z " fill="#000000"/><text fill="#000000" font-family="sans-serif" font-size="14" lengthAdjust="spacing" textLength="101" x="183.5" y="742.932">role_model_cvs</text><line style="stroke:#181818;stroke-width:0.5;" x1="155.5" x2="286.5" y1="753.5" y2="753.5"/><text fill="#000000" font-family="sans-serif" font-size="14" lengthAdjust="spacing" textLength="33" x="160.5" y="772.4659">cv_id</text><line style="stroke:#181818;stroke-width:0.5;" x1="155.5" x2="286.5" y1="780.5679" y2="780.5679"/></g><!--class feedback--><g id="elem_feedback"><rect codeLine="53" fill="#F1F1F1" height="162.4075" id="feedback" rx="2.5" ry="2.5" style="stroke:#181818;stroke-width:0.5;" width="93" x="322.5" y="674"/><ellipse cx="337.5" cy="690" fill="#ADD1B2" rx="11" ry="11" style="stroke:#181818;stroke-width:1.0;"/><path d="M333.8594,696.5 L333.8594,684.3594 L341.5156,684.3594 L341.5156,686.4844 L336.2344,686.4844 L336.2344,689.1406 L341.25,689.1406 L341.25,691.2656 L336.2344,691.2656 L336.2344,694.375 L341.5156,694.375 L341.5156,696.5 L333.8594,696.5 Z " fill="#000000"/><text fill="#000000" font-family="sans-serif" font-size="14" lengthAdjust="spacing" textLength="61" x="351.5" y="695.432">feedback</text><line style="stroke:#181818;stroke-width:0.5;" x1="323.5" x2="414.5" y1="706" y2="706"/><text fill="#000000" font-family="sans-serif" font-size="14" lengthAdjust="spacing" textLength="13" x="328.5" y="724.9659">id</text><text fill="#000000" font-family="sans-serif" font-size="14" lengthAdjust="spacing" textLength="49" x="328.5" y="744.0339">user_id</text><text fill="#000000" font-family="sans-serif" font-size="14" lengthAdjust="spacing" textLength="33" x="328.5" y="763.1018">cv_id</text><text fill="#000000" font-family="sans-serif" font-size="14" lengthAdjust="spacing" textLength="38" x="328.5" y="782.1697">xpath</text><text fill="#000000" font-family="sans-serif" font-size="14" lengthAdjust="spacing" textLength="31" x="328.5" y="801.2376">start</text><text fill="#000000" font-family="sans-serif" font-size="14" lengthAdjust="spacing" textLength="26" x="328.5" y="820.3055">end</text><line style="stroke:#181818;stroke-width:0.5;" x1="323.5" x2="414.5" y1="828.4075" y2="828.4075"/></g><!--class cover_letter--><g id="elem_cover_letter"><rect codeLine="63" fill="#F1F1F1" height="124.2717" id="cover_letter" rx="2.5" ry="2.5" style="stroke:#181818;stroke-width:0.5;" width="110" x="451" y="693"/><ellipse cx="466" cy="709" fill="#ADD1B2" rx="11" ry="11" style="stroke:#181818;stroke-width:1.0;"/><path d="M462.3594,715.5 L462.3594,703.3594 L470.0156,703.3594 L470.0156,705.4844 L464.7344,705.4844 L464.7344,708.1406 L469.75,708.1406 L469.75,710.2656 L464.7344,710.2656 L464.7344,713.375 L470.0156,713.375 L470.0156,715.5 L462.3594,715.5 Z " fill="#000000"/><text fill="#000000" font-family="sans-serif" font-size="14" lengthAdjust="spacing" textLength="78" x="480" y="714.432">cover_letter</text><line style="stroke:#181818;stroke-width:0.5;" x1="452" x2="560" y1="725" y2="725"/><text fill="#000000" font-family="sans-serif" font-size="14" lengthAdjust="spacing" textLength="13" x="457" y="743.9659">id</text><text fill="#000000" font-family="sans-serif" font-size="14" lengthAdjust="spacing" textLength="49" x="457" y="763.0339">user_id</text><text fill="#000000" font-family="sans-serif" font-size="14" lengthAdjust="spacing" textLength="33" x="457" y="782.1018">cv_id</text><text fill="#000000" font-family="sans-serif" font-size="14" lengthAdjust="spacing" textLength="78" x="457" y="801.1697">cover_letter</text><line style="stroke:#181818;stroke-width:0.5;" x1="452" x2="560" y1="809.2717" y2="809.2717"/></g><!--link user to profile--><g id="link_user_profile"><path codeLine="72" d="M227.69,208.44 C223.32,228.89 218.9,249.62 215.08,267.55 " fill="none" id="user-profile" style="stroke:#181818;stroke-width:1.0;"/><text fill="#000000" font-family="sans-serif" font-size="13" lengthAdjust="spacing" textLength="7" x="219.1006" y="229.3853">1</text><text fill="#000000" font-family="sans-serif" font-size="13" lengthAdjust="spacing" textLength="7" x="209.0986" y="256.2234">1</text></g><!--link profile to sections--><g id="link_profile_sections"><path codeLine="73" d="M188.03,373.26 C179.75,400.13 169.57,433.13 160.89,461.27 " fill="none" id="profile-sections" style="stroke:#181818;stroke-width:1.0;"/><text fill="#000000" font-family="sans-serif" font-size="13" lengthAdjust="spacing" textLength="7" x="178.5354" y="395.0381">1</text><text fill="#000000" font-family="sans-serif" font-size="13" lengthAdjust="spacing" textLength="8" x="154.7047" y="449.5733">n</text></g><!--link user to cv--><g id="link_user_cv"><path codeLine="74" d="M260.11,208.45 C267.7,276.77 277.67,366.55 285.01,432.61 " fill="none" id="user-cv" style="stroke:#181818;stroke-width:1.0;"/><text fill="#000000" font-family="sans-serif" font-size="13" lengthAdjust="spacing" textLength="7" x="253.5975" y="229.3959">1</text><text fill="#000000" font-family="sans-serif" font-size="13" lengthAdjust="spacing" textLength="8" x="275.8515" y="421.2858">n</text></g><!--link cv to role_model_cvs--><g id="link_cv_role_model_cvs"><path codeLine="75" d="M266.07,614.22 C253.95,651.81 240.62,693.16 231.62,721.07 " fill="none" id="cv-role_model_cvs" style="stroke:#181818;stroke-width:1.0;"/><text fill="#000000" font-family="sans-serif" font-size="13" lengthAdjust="spacing" textLength="7" x="256.3844" y="636.3432">1</text><text fill="#000000" font-family="sans-serif" font-size="13" lengthAdjust="spacing" textLength="8" x="224.9233" y="709.6764">n</text></g><!--link cv to feedback--><g id="link_cv_feedback"><path codeLine="76" d="M323.93,614.22 C330.25,633.83 336.91,654.47 343.1,673.68 " fill="none" id="cv-feedback" style="stroke:#181818;stroke-width:1.0;"/><text fill="#000000" font-family="sans-serif" font-size="13" lengthAdjust="spacing" textLength="7" x="319.0359" y="636.3432">1</text><text fill="#000000" font-family="sans-serif" font-size="13" lengthAdjust="spacing" textLength="8" x="332.3436" y="662.3105">n</text></g><!--link cv to cover_letter--><g id="link_cv_cover_letter"><path codeLine="77" d="M369.21,604.72 C389.89,627.12 412.34,651.49 433,674 C438.72,680.23 444.69,686.75 450.63,693.25 " fill="none" id="cv-cover_letter" style="stroke:#181818;stroke-width:1.0;"/><text fill="#000000" font-family="sans-serif" font-size="13" lengthAdjust="spacing" textLength="7" x="377.2238" y="609.1282">1</text><text fill="#000000" font-family="sans-serif" font-size="13" lengthAdjust="spacing" textLength="7" x="436.0873" y="681.1741">1</text></g><!--link cv to cv_template--><g id="link_cv_cv_template"><path codeLine="78" d="M220.64,597.25 C214.7,602.94 208.76,608.58 203,614 C174.12,641.16 165.15,646.09 137,674 C131.22,679.73 125.3,685.79 119.44,691.91 " fill="none" id="cv-cv_template" style="stroke:#181818;stroke-width:1.0;"/><text fill="#000000" font-family="sans-serif" font-size="13" lengthAdjust="spacing" textLength="7" x="205.9757" y="600.5814">1</text><text fill="#000000" font-family="sans-serif" font-size="13" lengthAdjust="spacing" textLength="7" x="127.1198" y="679.6537">1</text></g><!--link profile to cv--><g id="link_profile_cv"><path codeLine="80" d="M227.43,373.26 C235.65,391.41 245.13,412.35 254.34,432.7 " fill="none" id="profile-cv" style="stroke:#181818;stroke-width:1.0;"/><text fill="#000000" font-family="sans-serif" font-size="13" lengthAdjust="spacing" textLength="7" x="222.9835" y="395.0381">1</text><text fill="#000000" font-family="sans-serif" font-size="13" lengthAdjust="spacing" textLength="8" x="242.502" y="421.0733">n</text></g><!--SRC=[ZLFBSiCW3Bpp5PfSUaaF_I961YLcYe41uZJJwRzNFFn8qipqOYF9ArQxyXkeI9W9q06vRF8DBeaYN4qUmUXZZHnET8I0ALrzv1nDQEoH8HgYjoJsm6y1ZEF70kJZWkHZXPPF9ZoNqfdlkGoo8gnndwIDQv7s0sXc9dw4U7jcgMR8D0LRieLduwWfgMX2DjuTOJPqJPppLsSzQZw6os1D6acBjOjSkwpCE-jTBuvgiqghTojphUsOO-yOeZyPsxer4Teu08bKwPLg4AAPKTrsmANSaHtKkK2H0cM-XIrwBSngtYjHjl7_ENKd9oETA99JL9CZHjAos5RSGtU-iAboncZGvJ9sPPXnO3rEFW9z8MjDVEtAeEoFdBmcApdRPsTNdi4d8ZsW-boGItolrrxmrgQSlWBciPcGCUPw8lTqXV8pRx2bd2bk6fMaRCd_tBN_lbnGFFBEiO2GHsek6KhDf4YyUiNrqOGawWzq-3Z0-tjzzLqIoquj9NVObkaEmmKr2tPrbxXN-A6uYhfBy-jkXeVIziVmPDxHkl7PmuJkLjtzWp4J-mK0]--></g></svg>